<mxfile host="app.diagrams.net" agent="Mozilla/5.0 (Windows NT 10.0; Win64; x64) AppleWebKit/537.36 (KHTML, like Gecko) Chrome/131.0.0.0 Safari/537.36 OPR/116.0.0.0 (Edition std-1)" version="26.0.14">
  <diagram name="PÃ¡gina-1" id="l1BybOuI6KJ4-Wd0SCT0">
    <mxGraphModel grid="1" page="1" gridSize="10" guides="1" tooltips="1" connect="1" arrows="1" fold="1" pageScale="1" pageWidth="827" pageHeight="1169" math="0" shadow="0">
      <root>
        <mxCell id="0" />
        <mxCell id="1" parent="0" />
        <mxCell id="5NYcPnef9I0DU5xUcCX4-1" value="Empleado" style="swimlane;fontStyle=1;align=center;verticalAlign=top;childLayout=stackLayout;horizontal=1;startSize=26;horizontalStack=0;resizeParent=1;resizeParentMax=0;resizeLast=0;collapsible=1;marginBottom=0;whiteSpace=wrap;html=1;" vertex="1" parent="1">
          <mxGeometry x="210" y="70" width="370" height="320" as="geometry" />
        </mxCell>
        <mxCell id="5NYcPnef9I0DU5xUcCX4-2" value="+ id: boolean" style="text;strokeColor=none;fillColor=none;align=left;verticalAlign=top;spacingLeft=4;spacingRight=4;overflow=hidden;rotatable=0;points=[[0,0.5],[1,0.5]];portConstraint=eastwest;whiteSpace=wrap;html=1;" vertex="1" parent="5NYcPnef9I0DU5xUcCX4-1">
          <mxGeometry y="26" width="370" height="26" as="geometry" />
        </mxCell>
        <mxCell id="5NYcPnef9I0DU5xUcCX4-5" value="+ salario: double&lt;span style=&quot;white-space: pre;&quot;&gt;&#x9;&lt;/span&gt;" style="text;strokeColor=none;fillColor=none;align=left;verticalAlign=top;spacingLeft=4;spacingRight=4;overflow=hidden;rotatable=0;points=[[0,0.5],[1,0.5]];portConstraint=eastwest;whiteSpace=wrap;html=1;" vertex="1" parent="5NYcPnef9I0DU5xUcCX4-1">
          <mxGeometry y="52" width="370" height="26" as="geometry" />
        </mxCell>
        <mxCell id="5NYcPnef9I0DU5xUcCX4-6" value="+ horasSemanales: int" style="text;strokeColor=none;fillColor=none;align=left;verticalAlign=top;spacingLeft=4;spacingRight=4;overflow=hidden;rotatable=0;points=[[0,0.5],[1,0.5]];portConstraint=eastwest;whiteSpace=wrap;html=1;" vertex="1" parent="5NYcPnef9I0DU5xUcCX4-1">
          <mxGeometry y="78" width="370" height="26" as="geometry" />
        </mxCell>
        <mxCell id="5NYcPnef9I0DU5xUcCX4-7" value="+ altaSeguro: boolean" style="text;strokeColor=none;fillColor=none;align=left;verticalAlign=top;spacingLeft=4;spacingRight=4;overflow=hidden;rotatable=0;points=[[0,0.5],[1,0.5]];portConstraint=eastwest;whiteSpace=wrap;html=1;" vertex="1" parent="5NYcPnef9I0DU5xUcCX4-1">
          <mxGeometry y="104" width="370" height="26" as="geometry" />
        </mxCell>
        <mxCell id="5NYcPnef9I0DU5xUcCX4-3" value="" style="line;strokeWidth=1;fillColor=none;align=left;verticalAlign=middle;spacingTop=-1;spacingLeft=3;spacingRight=3;rotatable=0;labelPosition=right;points=[];portConstraint=eastwest;strokeColor=inherit;" vertex="1" parent="5NYcPnef9I0DU5xUcCX4-1">
          <mxGeometry y="130" width="370" height="8" as="geometry" />
        </mxCell>
        <mxCell id="5NYcPnef9I0DU5xUcCX4-4" value="+ &lt;span class=&quot;hljs-title function_ invoke__&quot;&gt;Empleado&lt;/span&gt;(&lt;span class=&quot;hljs-attr&quot;&gt;id&lt;/span&gt;: &lt;span class=&quot;hljs-keyword&quot;&gt;int&lt;/span&gt;, &lt;span class=&quot;hljs-attr&quot;&gt;salario&lt;/span&gt;: &lt;span class=&quot;hljs-keyword&quot;&gt;double&lt;/span&gt;, &lt;span class=&quot;hljs-attr&quot;&gt;maxHoras&lt;/span&gt;: &lt;span class=&quot;hljs-keyword&quot;&gt;int&lt;/span&gt;)" style="text;strokeColor=none;fillColor=none;align=left;verticalAlign=top;spacingLeft=4;spacingRight=4;overflow=hidden;rotatable=0;points=[[0,0.5],[1,0.5]];portConstraint=eastwest;whiteSpace=wrap;html=1;" vertex="1" parent="5NYcPnef9I0DU5xUcCX4-1">
          <mxGeometry y="138" width="370" height="26" as="geometry" />
        </mxCell>
        <mxCell id="5NYcPnef9I0DU5xUcCX4-8" value="+ &lt;span class=&quot;hljs-title function_ invoke__&quot;&gt;ingresarDatos&lt;/span&gt;(&lt;span class=&quot;hljs-attr&quot;&gt;id&lt;/span&gt;: &lt;span class=&quot;hljs-keyword&quot;&gt;int&lt;/span&gt;, &lt;span class=&quot;hljs-attr&quot;&gt;salario&lt;/span&gt;: &lt;span class=&quot;hljs-keyword&quot;&gt;double&lt;/span&gt;, &lt;span class=&quot;hljs-attr&quot;&gt;maxHoras&lt;/span&gt;: &lt;span class=&quot;hljs-keyword&quot;&gt;int&lt;/span&gt;): &lt;span class=&quot;hljs-keyword&quot;&gt;void&lt;/span&gt;" style="text;strokeColor=none;fillColor=none;align=left;verticalAlign=top;spacingLeft=4;spacingRight=4;overflow=hidden;rotatable=0;points=[[0,0.5],[1,0.5]];portConstraint=eastwest;whiteSpace=wrap;html=1;" vertex="1" parent="5NYcPnef9I0DU5xUcCX4-1">
          <mxGeometry y="164" width="370" height="26" as="geometry" />
        </mxCell>
        <mxCell id="5NYcPnef9I0DU5xUcCX4-9" value="+ &lt;span class=&quot;hljs-title function_ invoke__&quot;&gt;mostrarDatos&lt;/span&gt;(): &lt;span class=&quot;hljs-keyword&quot;&gt;void&lt;/span&gt;" style="text;strokeColor=none;fillColor=none;align=left;verticalAlign=top;spacingLeft=4;spacingRight=4;overflow=hidden;rotatable=0;points=[[0,0.5],[1,0.5]];portConstraint=eastwest;whiteSpace=wrap;html=1;" vertex="1" parent="5NYcPnef9I0DU5xUcCX4-1">
          <mxGeometry y="190" width="370" height="26" as="geometry" />
        </mxCell>
        <mxCell id="5NYcPnef9I0DU5xUcCX4-10" value="&lt;span class=&quot;hljs-title function_ invoke__&quot;&gt;+ darAltaSeguridadSocial&lt;/span&gt;(): &lt;span class=&quot;hljs-keyword&quot;&gt;void&lt;/span&gt;" style="text;strokeColor=none;fillColor=none;align=left;verticalAlign=top;spacingLeft=4;spacingRight=4;overflow=hidden;rotatable=0;points=[[0,0.5],[1,0.5]];portConstraint=eastwest;whiteSpace=wrap;html=1;" vertex="1" parent="5NYcPnef9I0DU5xUcCX4-1">
          <mxGeometry y="216" width="370" height="26" as="geometry" />
        </mxCell>
        <mxCell id="5NYcPnef9I0DU5xUcCX4-11" value="+ &lt;span class=&quot;hljs-title function_ invoke__&quot;&gt;darBajaSeguridadSocial&lt;/span&gt;(): &lt;span class=&quot;hljs-keyword&quot;&gt;void&lt;/span&gt;" style="text;strokeColor=none;fillColor=none;align=left;verticalAlign=top;spacingLeft=4;spacingRight=4;overflow=hidden;rotatable=0;points=[[0,0.5],[1,0.5]];portConstraint=eastwest;whiteSpace=wrap;html=1;" vertex="1" parent="5NYcPnef9I0DU5xUcCX4-1">
          <mxGeometry y="242" width="370" height="26" as="geometry" />
        </mxCell>
        <mxCell id="5NYcPnef9I0DU5xUcCX4-12" value="+ &lt;span class=&quot;hljs-title function_ invoke__&quot;&gt;darAltaSeguro&lt;/span&gt;(): &lt;span class=&quot;hljs-keyword&quot;&gt;void&lt;/span&gt;" style="text;strokeColor=none;fillColor=none;align=left;verticalAlign=top;spacingLeft=4;spacingRight=4;overflow=hidden;rotatable=0;points=[[0,0.5],[1,0.5]];portConstraint=eastwest;whiteSpace=wrap;html=1;" vertex="1" parent="5NYcPnef9I0DU5xUcCX4-1">
          <mxGeometry y="268" width="370" height="26" as="geometry" />
        </mxCell>
        <mxCell id="5NYcPnef9I0DU5xUcCX4-13" value="+ &lt;span class=&quot;hljs-title function_ invoke__&quot;&gt;darBajaSeguro&lt;/span&gt;(): &lt;span class=&quot;hljs-keyword&quot;&gt;void&lt;/span&gt;" style="text;strokeColor=none;fillColor=none;align=left;verticalAlign=top;spacingLeft=4;spacingRight=4;overflow=hidden;rotatable=0;points=[[0,0.5],[1,0.5]];portConstraint=eastwest;whiteSpace=wrap;html=1;" vertex="1" parent="5NYcPnef9I0DU5xUcCX4-1">
          <mxGeometry y="294" width="370" height="26" as="geometry" />
        </mxCell>
      </root>
    </mxGraphModel>
  </diagram>
</mxfile>
